<svg width="25" height="25" viewBox="0 0 25 25" fill="none" xmlns="http://www.w3.org/2000/svg">
<path d="M23.8566 6.77452C23.584 5.74804 22.7808 4.93962 21.761 4.66527C19.9124 4.16675 12.5001 4.16675 12.5001 4.16675C12.5001 4.16675 5.08773 4.16675 3.23917 4.66527C2.21933 4.93966 1.41612 5.74804 1.14351 6.77452C0.648193 8.63506 0.648193 12.5169 0.648193 12.5169C0.648193 12.5169 0.648193 16.3988 1.14351 18.2593C1.41612 19.2858 2.21933 20.0605 3.23917 20.3349C5.08773 20.8334 12.5001 20.8334 12.5001 20.8334C12.5001 20.8334 19.9124 20.8334 21.761 20.3349C22.7808 20.0605 23.584 19.2858 23.8566 18.2593C24.3519 16.3988 24.3519 12.5169 24.3519 12.5169C24.3519 12.5169 24.3519 8.63506 23.8566 6.77452ZM10.0758 16.0414V8.99249L16.2711 12.517L10.0758 16.0414Z" fill="#162633"/>
</svg>
