<svg width="574" height="73" viewBox="0 0 574 73" fill="none" xmlns="http://www.w3.org/2000/svg">
<path d="M0.0681818 71V1.18182H27.6136C32.8864 1.18182 37.3864 2.125 41.1136 4.01136C44.8636 5.875 47.7159 8.52273 49.6705 11.9545C51.6477 15.3636 52.6364 19.375 52.6364 23.9886C52.6364 28.625 51.6364 32.6136 49.6364 35.9545C47.6364 39.2727 44.7386 41.8182 40.9432 43.5909C37.1705 45.3636 32.6023 46.25 27.2386 46.25H8.79546V34.3864H24.8523C27.6705 34.3864 30.0114 34 31.875 33.2273C33.7386 32.4545 35.125 31.2955 36.0341 29.75C36.9659 28.2045 37.4318 26.2841 37.4318 23.9886C37.4318 21.6705 36.9659 19.7159 36.0341 18.125C35.125 16.5341 33.7273 15.3295 31.8409 14.5114C29.9773 13.6705 27.625 13.25 24.7841 13.25H14.8295V71H0.0681818ZM37.7727 39.2273L55.125 71H38.8295L21.8523 39.2273H37.7727ZM135.69 1.18182L149.77 24.9773H150.315L164.463 1.18182H181.134L159.827 36.0909L181.611 71H164.634L150.315 47.1705H149.77L135.452 71H118.543L140.395 36.0909L118.952 1.18182H135.69ZM202.509 71H186.69L210.793 1.18182H229.815L253.884 71H238.065L220.577 17.1364H220.031L202.509 71ZM201.52 43.5568H238.884V55.0795H201.52V43.5568ZM330.801 23.75C330.324 22.0909 329.653 20.625 328.79 19.3523C327.926 18.0568 326.869 16.9659 325.619 16.0795C324.392 15.1705 322.983 14.4773 321.392 14C319.824 13.5227 318.085 13.2841 316.176 13.2841C312.608 13.2841 309.472 14.1705 306.767 15.9432C304.085 17.7159 301.994 20.2955 300.494 23.6818C298.994 27.0455 298.244 31.1591 298.244 36.0227C298.244 40.8864 298.983 45.0227 300.46 48.4318C301.938 51.8409 304.028 54.4432 306.733 56.2386C309.438 58.0114 312.631 58.8977 316.312 58.8977C319.653 58.8977 322.506 58.3068 324.869 57.125C327.256 55.9205 329.074 54.2273 330.324 52.0455C331.597 49.8636 332.233 47.2841 332.233 44.3068L335.233 44.75H317.233V33.6364H346.449V42.4318C346.449 48.5682 345.153 53.8409 342.562 58.25C339.972 62.6364 336.403 66.0227 331.858 68.4091C327.312 70.7727 322.108 71.9545 316.244 71.9545C309.699 71.9545 303.949 70.5114 298.994 67.625C294.04 64.7159 290.176 60.5909 287.403 55.25C284.653 49.8864 283.278 43.5227 283.278 36.1591C283.278 30.5 284.097 25.4545 285.733 21.0227C287.392 16.5682 289.71 12.7955 292.688 9.70455C295.665 6.61363 299.131 4.26136 303.085 2.64772C307.04 1.03409 311.324 0.22727 315.938 0.22727C319.892 0.22727 323.574 0.806816 326.983 1.96591C330.392 3.10227 333.415 4.71591 336.051 6.80682C338.71 8.89772 340.881 11.3864 342.562 14.2727C344.244 17.1364 345.324 20.2955 345.801 23.75H330.801ZM371.787 1.18182V71H357.264V1.18182H371.787ZM407.08 72.0227C401.784 72.0227 397.205 70.8977 393.341 68.6477C389.5 66.375 386.534 63.2159 384.443 59.1705C382.352 55.1023 381.307 50.3864 381.307 45.0227C381.307 39.6136 382.352 34.8864 384.443 30.8409C386.534 26.7727 389.5 23.6136 393.341 21.3636C397.205 19.0909 401.784 17.9545 407.08 17.9545C412.375 17.9545 416.943 19.0909 420.784 21.3636C424.648 23.6136 427.625 26.7727 429.716 30.8409C431.807 34.8864 432.852 39.6136 432.852 45.0227C432.852 50.3864 431.807 55.1023 429.716 59.1705C427.625 63.2159 424.648 66.375 420.784 68.6477C416.943 70.8977 412.375 72.0227 407.08 72.0227ZM407.148 60.7727C409.557 60.7727 411.568 60.0909 413.182 58.7273C414.795 57.3409 416.011 55.4545 416.83 53.0682C417.67 50.6818 418.091 47.9659 418.091 44.9205C418.091 41.875 417.67 39.1591 416.83 36.7727C416.011 34.3864 414.795 32.5 413.182 31.1136C411.568 29.7273 409.557 29.0341 407.148 29.0341C404.716 29.0341 402.67 29.7273 401.011 31.1136C399.375 32.5 398.136 34.3864 397.295 36.7727C396.477 39.1591 396.068 41.875 396.068 44.9205C396.068 47.9659 396.477 50.6818 397.295 53.0682C398.136 55.4545 399.375 57.3409 401.011 58.7273C402.67 60.0909 404.716 60.7727 407.148 60.7727ZM442.568 71V1.18182H457.091V27.4318H457.534C458.17 26.0227 459.091 24.5909 460.295 23.1364C461.523 21.6591 463.114 20.4318 465.068 19.4545C467.045 18.4545 469.5 17.9545 472.432 17.9545C476.25 17.9545 479.773 18.9545 483 20.9545C486.227 22.9318 488.807 25.9205 490.739 29.9205C492.67 33.8977 493.636 38.8864 493.636 44.8864C493.636 50.7273 492.693 55.6591 490.807 59.6818C488.943 63.6818 486.398 66.7159 483.17 68.7841C479.966 70.8295 476.375 71.8523 472.398 71.8523C469.58 71.8523 467.182 71.3864 465.205 70.4545C463.25 69.5227 461.648 68.3523 460.398 66.9432C459.148 65.5114 458.193 64.0682 457.534 62.6136H456.886V71H442.568ZM456.784 44.8182C456.784 47.9318 457.216 50.6477 458.08 52.9659C458.943 55.2841 460.193 57.0909 461.83 58.3864C463.466 59.6591 465.455 60.2955 467.795 60.2955C470.159 60.2955 472.159 59.6477 473.795 58.3523C475.432 57.0341 476.67 55.2159 477.511 52.8977C478.375 50.5568 478.807 47.8636 478.807 44.8182C478.807 41.7955 478.386 39.1364 477.545 36.8409C476.705 34.5455 475.466 32.75 473.83 31.4545C472.193 30.1591 470.182 29.5114 467.795 29.5114C465.432 29.5114 463.432 30.1364 461.795 31.3864C460.182 32.6364 458.943 34.4091 458.08 36.7045C457.216 39 456.784 41.7045 456.784 44.8182ZM518.259 71.9886C514.918 71.9886 511.94 71.4091 509.327 70.25C506.713 69.0682 504.645 67.3295 503.122 65.0341C501.622 62.7159 500.872 59.8295 500.872 56.375C500.872 53.4659 501.406 51.0227 502.474 49.0455C503.543 47.0682 504.997 45.4773 506.838 44.2727C508.679 43.0682 510.77 42.1591 513.111 41.5455C515.474 40.9318 517.952 40.5 520.543 40.25C523.588 39.9318 526.043 39.6364 527.906 39.3636C529.77 39.0682 531.122 38.6364 531.963 38.0682C532.804 37.5 533.224 36.6591 533.224 35.5455V35.3409C533.224 33.1818 532.543 31.5114 531.179 30.3295C529.838 29.1477 527.929 28.5568 525.452 28.5568C522.838 28.5568 520.759 29.1364 519.213 30.2955C517.668 31.4318 516.645 32.8636 516.145 34.5909L502.713 33.5C503.395 30.3182 504.736 27.5682 506.736 25.25C508.736 22.9091 511.315 21.1136 514.474 19.8636C517.656 18.5909 521.338 17.9545 525.52 17.9545C528.429 17.9545 531.213 18.2955 533.872 18.9773C536.554 19.6591 538.929 20.7159 540.997 22.1477C543.088 23.5795 544.736 25.4205 545.94 27.6705C547.145 29.8977 547.747 32.5682 547.747 35.6818V71H533.974V63.7386H533.565C532.724 65.375 531.599 66.8182 530.19 68.0682C528.781 69.2955 527.088 70.2614 525.111 70.9659C523.134 71.6477 520.849 71.9886 518.259 71.9886ZM522.418 61.9659C524.554 61.9659 526.44 61.5455 528.077 60.7045C529.713 59.8409 530.997 58.6818 531.929 57.2273C532.861 55.7727 533.327 54.125 533.327 52.2841V46.7273C532.872 47.0227 532.247 47.2955 531.452 47.5455C530.679 47.7727 529.804 47.9886 528.827 48.1932C527.849 48.375 526.872 48.5455 525.895 48.7045C524.918 48.8409 524.031 48.9659 523.236 49.0795C521.531 49.3295 520.043 49.7273 518.77 50.2727C517.497 50.8182 516.509 51.5568 515.804 52.4886C515.099 53.3977 514.747 54.5341 514.747 55.8977C514.747 57.875 515.463 59.3864 516.895 60.4318C518.349 61.4545 520.19 61.9659 522.418 61.9659ZM573.537 1.18182V71H559.014V1.18182H573.537Z" fill="black"/>
<path d="M63.0682 71V1.18182H110.114V13.3523H77.8295V29.9886H107.693V42.1591H77.8295V58.8295H110.25V71H63.0682Z" fill="#4C7799"/>
</svg>
